{"title":"100.Years.Of.British.Ships.2007.DVDRip.XViD-SPRiNTER","uid":6666400,"size":745862630,"categoryP":"video","categoryS":"movies","magnet":"?xt=urn:btih:4e7ceda6882bea9eef466456dae1490c0efb2638&amp;dn=100.Years.Of.British.Ships.2007.DVDRip.XViD-SPRiNTER&amp;tr=udp%3A%2F%2Ftracker.openbittorrent.com%3A80&amp;tr=udp%3A%2F%2Fopen.demonii.com%3A1337&amp;tr=udp%3A%2F%2Ftracker.coppersurfer.tk%3A6969&amp;tr=udp%3A%2F%2Fexodus.desync.com%3A6969","seeders":0,"leechers":0,"uploader":"TvTeam","files":5,"time":1315702048,"description":". \n  &lt;a href=&quot;\nhttp://www.torrenting.com/&quot; rel=&quot;nofollow&quot; target=&quot;_NEW&quot;&gt;\nhttp://www.torrenting.com/&lt;/a&gt;        :     Greatest Movie Tracker on The Net!!!\n &lt;a href=&quot;\nhttp://www.Torrenting.com&quot; rel=&quot;nofollow&quot; target=&quot;_NEW&quot;&gt;\nhttp://www.Torrenting.com&lt;/a&gt;          :     Once &amp; For all ;)\n\n\n               www . Torrenting . Com \n\n(((((((((((((= Enjoy No RAR releases =))))))))))))))))))))\n\n\n...................................NFO:....................................\n\n.\n                                                     \n                                                   \n                                                         \n                                                          \n                                                           \n                                                          \n                                                          \n                                                          \n                                                           \n                                                         \n                                                          \n                                                        \n                                                      \n                                     \n                                                 \n                                                   \n                                             \n                                              \n                                                     \n                                                      \n                                                      \n                                                      \n                                                    \n                                                     \n                                                   \n                                                     \n                                                     \n                                                      \n                                                     \n                                                      \n                                                    \n                 ARTiCHOKE                        \n                                                \n                      \n                                                        \n                                                      \n                                                      \n                                               \n                                          \n                                                   \n                                            \n                                                    \n                                                       \n                                                        \n                                                      \n                                                \n                                                        \n                                                 \n                                              \n                                                  \n                                                \n                                                  \n                                        \n\n      \n                                \n      SPRiNTER proudly presents...     \n                                \n      \n \n 100.Years.Of.British.Ships.2007.DVDRip.XViD-SPRiNTER\n &lt;a href=&quot; http://www.amazon.co.uk/One-Hundred-Years-British-Ships/dp/B000W1SP9U&quot; rel=&quot;nofollow&quot; target=&quot;_NEW&quot;&gt; http://www.amazon.co.uk/One-Hundred-Years-British-Ships/dp/B000W1SP9U&lt;/a&gt;\n \n\n Date: 2011.08\n\n \n\n      \n                 \n      Release notes     \n                 \n      \n\n \n\n\tEnjoy!\n\n\n      \n           \n     Greetings    \n           \n      \n\n\nNTX FiCO HNR CiNEFiLE AEN HUMANiSM TASTE 0MNiDVD\n\n\n      \n           \n      Details     \n           \n      \n\nFormat                           : AVI\nFormat/Info                      : Audio Video Interleave\nFile size                        : 698 MiB\nDuration                         : 56mn 57s\nOverall bit rate                 : 1 712 Kbps\nWriting application              : Nandub v1.0rc2\nWriting library                  : Nandub build 1853/release\n\nVideo\nID                               : 0\nFormat                           : MPEG-4 Visual\nFormat profile                   : Advanced Simple@L5\nFormat settings, BVOP            : No\nFormat settings, QPel            : No\nFormat settings, GMC             : No warppoints\nFormat settings, Matrix          : Default (H.263)\nCodec ID                         : XVID\nCodec ID/Hint                    : XviD\nDuration                         : 56mn 57s\nBit rate                         : 1 564 Kbps\nWidth                            : 512 pixels\nHeight                           : 384 pixels\nDisplay aspect ratio             : 4:3\nFrame rate                       : 25.000 fps\nColor space                      : YUV\nChroma subsampling               : 4:2:0\nBit depth                        : 8 bits\nScan type                        : Progressive\nCompression mode                 : Lossy\nBits/(Pixel*Frame)               : 0.318\nStream size                      : 637 MiB (91%)\nWriting library                  : XviD 61\n\nAudio\nID                               : 1\nFormat                           : MPEG Audio\nFormat version                   : Version 1\nFormat profile                   : Layer 3\nCodec ID                         : 55\nCodec ID/Hint                    : MP3\nDuration                         : 56mn 57s\nBit rate mode                    : Variable\nBit rate                         : 135 Kbps\nChannel(s)                       : 2 channels\nSampling rate                    : 48.0 KHz\nCompression mode                 : Lossy\nStream size                      : 54.8 MiB (8%)\nAlignment                        : Aligned on interleaves\nInterleave, duration             : 24 ms (0.60 video frame)\nInterleave, preload duration     : 131 ms\nWriting library                  : LAME3.89 (alpha)","torrent":{"xt":"urn:btih:4e7ceda6882bea9eef466456dae1490c0efb2638","amp;dn":"100.Years.Of.British.Ships.2007.DVDRip.XViD-SPRiNTER","amp;tr":["udp%3A%2F%2Ftracker.openbittorrent.com%3A80","udp%3A%2F%2Fopen.demonii.com%3A1337","udp%3A%2F%2Ftracker.coppersurfer.tk%3A6969","udp%3A%2F%2Fexodus.desync.com%3A6969"],"infoHash":"4e7ceda6882bea9eef466456dae1490c0efb2638","infoHashBuffer":{"type":"Buffer","data":[78,124,237,166,136,43,234,158,239,70,100,86,218,225,73,12,14,251,38,56]},"announce":[],"urlList":[]}}